<svg width="134" height="26" viewBox="0 0 134 26" fill="none" xmlns="http://www.w3.org/2000/svg">
<g filter="url(#filter0_d_1_2)">
<path d="M4.05469 0.867188H9.14062C11.5 0.867188 13.2031 1.21094 14.25 1.89844C15.3047 2.58594 15.832 3.67188 15.832 5.15625C15.832 6.15625 15.5742 6.98828 15.0586 7.65234C14.543 8.31641 13.8008 8.73438 12.832 8.90625V9.02344C14.0352 9.25 14.918 9.69922 15.4805 10.3711C16.0508 11.0352 16.3359 11.9375 16.3359 13.0781C16.3359 14.6172 15.7969 15.8242 14.7188 16.6992C13.6484 17.5664 12.1562 18 10.2422 18H4.05469V0.867188ZM6.85547 7.94531H9.55078C10.7227 7.94531 11.5781 7.76172 12.1172 7.39453C12.6562 7.01953 12.9258 6.38672 12.9258 5.49609C12.9258 4.69141 12.6328 4.10938 12.0469 3.75C11.4688 3.39062 10.5469 3.21094 9.28125 3.21094H6.85547V7.94531ZM6.85547 10.2188V15.6445H9.83203C11.0039 15.6445 11.8867 15.4219 12.4805 14.9766C13.082 14.5234 13.3828 13.8125 13.3828 12.8438C13.3828 11.9531 13.0781 11.293 12.4688 10.8633C11.8594 10.4336 10.9336 10.2188 9.69141 10.2188H6.85547ZM29.5898 18H19.8984V0.867188H29.5898V3.23438H22.6992V7.89844H29.1562V10.2422H22.6992V15.6211H29.5898V18ZM33.3047 18V0.867188H36.1055V15.5977H43.3594V18H33.3047ZM52.2305 18H49.4297V3.26953H44.3906V0.867188H57.2695V3.26953H52.2305V18ZM62.707 8.83594H64.6523C65.957 8.83594 66.9023 8.59375 67.4883 8.10938C68.0742 7.625 68.3672 6.90625 68.3672 5.95312C68.3672 4.98438 68.0508 4.28906 67.418 3.86719C66.7852 3.44531 65.832 3.23438 64.5586 3.23438H62.707V8.83594ZM62.707 11.1562V18H59.9062V0.867188H64.7461C66.957 0.867188 68.5938 1.28125 69.6562 2.10938C70.7188 2.9375 71.25 4.1875 71.25 5.85938C71.25 7.99219 70.1406 9.51172 67.9219 10.418L72.7617 18H69.5742L65.4727 11.1562H62.707ZM84.9492 18H75.2578V0.867188H84.9492V3.23438H78.0586V7.89844H84.5156V10.2422H78.0586V15.6211H84.9492V18ZM98.4258 0.867188H101.332L95.332 18H92.3789L86.4023 0.867188H89.2852L92.8594 11.5195C93.0469 12.0273 93.2461 12.6836 93.457 13.4883C93.668 14.2852 93.8047 14.8789 93.8672 15.2695C93.9688 14.6758 94.125 13.9883 94.3359 13.207C94.5469 12.4258 94.7188 11.8477 94.8516 11.4727L98.4258 0.867188ZM114.223 18L112.512 13.2422H105.961L104.285 18H101.332L107.742 0.796875H110.789L117.199 18H114.223ZM111.773 10.8281L110.168 6.16406C110.051 5.85156 109.887 5.35938 109.676 4.6875C109.473 4.01562 109.332 3.52344 109.254 3.21094C109.043 4.17188 108.734 5.22266 108.328 6.36328L106.781 10.8281H111.773ZM119.461 18V0.867188H122.262V15.5977H129.516V18H119.461Z" fill="white"/>
</g>
<defs>
<filter id="filter0_d_1_2" x="0.0546875" y="0.796875" width="133.461" height="25.2031" filterUnits="userSpaceOnUse" color-interpolation-filters="sRGB">
<feFlood flood-opacity="0" result="BackgroundImageFix"/>
<feColorMatrix in="SourceAlpha" type="matrix" values="0 0 0 0 0 0 0 0 0 0 0 0 0 0 0 0 0 0 127 0" result="hardAlpha"/>
<feOffset dy="4"/>
<feGaussianBlur stdDeviation="2"/>
<feComposite in2="hardAlpha" operator="out"/>
<feColorMatrix type="matrix" values="0 0 0 0 0 0 0 0 0 0 0 0 0 0 0 0 0 0 0.25 0"/>
<feBlend mode="normal" in2="BackgroundImageFix" result="effect1_dropShadow_1_2"/>
<feBlend mode="normal" in="SourceGraphic" in2="effect1_dropShadow_1_2" result="shape"/>
</filter>
</defs>
</svg>
