<svg width="343" height="61" xmlns="http://www.w3.org/2000/svg"><path d="M31.84 60l11.92-40.4L55.52 60h13.04L87.52 4H74.48l-12 42.72L50.24 4h-12.4L25.76 46.72 13.6 4H0l18.88 56h12.96zm76.523.48c3.84 0 7.32-.653 10.44-1.96 3.12-1.307 5.773-3.187 7.96-5.64l-6.48-6.56c-1.493 1.493-3.173 2.627-5.04 3.4a15.112 15.112 0 01-5.84 1.16c-2.773 0-5.147-.76-7.12-2.28-1.973-1.52-3.307-3.64-4-6.36h30.88c.053-.693.08-1.68.08-2.96 0-7.147-1.8-12.72-5.4-16.72-3.6-4-8.867-6-15.8-6-4.32 0-8.16.92-11.52 2.76-3.36 1.84-5.973 4.427-7.84 7.76s-2.8 7.187-2.8 11.56c0 4.32.92 8.133 2.76 11.44 1.84 3.307 4.453 5.867 7.84 7.68 3.387 1.813 7.347 2.72 11.88 2.72zm9.28-25.52h-19.6c.48-2.88 1.613-5.16 3.4-6.84 1.787-1.68 4.013-2.52 6.68-2.52 2.827 0 5.093.853 6.8 2.56 1.707 1.707 2.613 3.973 2.72 6.8zm47.163 25.52c4 0 7.507-.907 10.52-2.72 3.013-1.813 5.347-4.36 7-7.64 1.653-3.28 2.48-7.08 2.48-11.4 0-4.373-.84-8.24-2.52-11.6-1.68-3.36-4.053-5.96-7.12-7.8-3.067-1.84-6.6-2.76-10.6-2.76-2.88 0-5.48.573-7.8 1.72-2.32 1.147-4.253 2.813-5.8 5V.64h-12.32V60h12.32v-6.24c1.6 2.187 3.56 3.853 5.88 5 2.32 1.147 4.973 1.72 7.96 1.72zm-3.12-10.24c-3.147 0-5.72-1.093-7.72-3.28s-3-5.067-3-8.64c0-3.467 1-6.307 3-8.52 2-2.213 4.573-3.32 7.72-3.32 3.147 0 5.707 1.107 7.68 3.32 1.973 2.213 2.96 5.053 2.96 8.52 0 3.52-.987 6.387-2.96 8.6-1.973 2.213-4.533 3.32-7.68 3.32zM217.41 60c5.814 0 10.987-1.187 15.52-3.56 4.534-2.373 8.067-5.68 10.6-9.92 2.534-4.24 3.8-9.08 3.8-14.52 0-5.44-1.24-10.28-3.72-14.52-2.48-4.24-5.96-7.547-10.44-9.92C228.69 5.187 223.596 4 217.89 4h-23.76v56h23.28zm.8-10.64h-11.44V14.64h10.88c3.2 0 6.067.733 8.6 2.2 2.534 1.467 4.534 3.533 6 6.2 1.467 2.667 2.2 5.68 2.2 9.04 0 3.36-.693 6.347-2.08 8.96-1.386 2.613-3.32 4.653-5.8 6.12-2.48 1.467-5.266 2.2-8.36 2.2zm56.923 11.12c3.84 0 7.32-.653 10.44-1.96 3.12-1.307 5.774-3.187 7.96-5.64l-6.48-6.56c-1.493 1.493-3.173 2.627-5.04 3.4a15.112 15.112 0 01-5.84 1.16c-2.773 0-5.146-.76-7.12-2.28-1.973-1.52-3.306-3.64-4-6.36h30.88c.054-.693.08-1.68.08-2.96 0-7.147-1.8-12.72-5.4-16.72-3.6-4-8.866-6-15.8-6-4.32 0-8.16.92-11.52 2.76-3.36 1.84-5.973 4.427-7.84 7.76-1.866 3.333-2.8 7.187-2.8 11.56 0 4.32.92 8.133 2.76 11.44 1.84 3.307 4.454 5.867 7.84 7.68 3.387 1.813 7.347 2.72 11.88 2.72zm9.28-25.52h-19.6c.48-2.88 1.614-5.16 3.4-6.84 1.787-1.68 4.014-2.52 6.68-2.52 2.827 0 5.094.853 6.8 2.56 1.707 1.707 2.614 3.973 2.72 6.8zM326.375 60l16.24-43.04h-12.24l-10.08 31.36-10.16-31.36-12.72.08L313.735 60h12.64z" fill="#FFF" fill-rule="nonzero"/></svg>
